<svg id="svg" version="1.1" xmlns="http://www.w3.org/2000/svg" xmlns:xlink="http://www.w3.org/1999/xlink" width="400" height="400" viewBox="0, 0, 400,400"><g id="svgg"><path id="path0" d="M85.000 2.870 C 79.635 3.502,77.632 3.807,74.000 4.548 C 58.575 7.693,44.799 14.542,32.227 25.315 C 30.026 27.201,29.320 28.001,29.416 28.500 C 31.336 38.550,36.151 63.199,36.211 63.286 C 36.256 63.351,41.710 62.418,48.331 61.213 L 60.369 59.021 62.101 57.550 C 77.028 44.874,100.040 42.739,117.067 52.452 L 119.633 53.916 119.467 53.041 C 117.146 40.798,114.496 25.605,114.663 25.502 C 114.784 25.427,121.922 24.007,130.525 22.346 C 139.128 20.685,146.303 19.282,146.469 19.229 C 147.348 18.947,136.443 12.727,130.833 10.311 C 117.205 4.441,98.057 1.333,85.000 2.870 M141.500 30.917 C 133.433 32.499,126.803 33.807,126.767 33.824 C 126.638 33.885,131.966 63.173,132.232 63.869 C 132.379 64.255,137.825 69.270,144.333 75.012 C 150.842 80.754,157.236 86.402,158.542 87.563 L 160.918 89.675 177.376 75.129 C 186.427 67.128,193.879 60.543,193.936 60.494 C 194.214 60.255,157.486 28.159,156.872 28.104 C 156.484 28.070,149.567 29.336,141.500 30.917 M19.263 39.037 C 3.184 58.784,-3.378 88.870,2.547 115.667 C 6.284 132.566,15.263 148.597,28.104 161.293 L 31.266 164.419 46.390 161.479 L 61.515 158.539 58.631 142.584 C 55.903 127.487,55.695 126.562,54.768 125.398 C 43.337 111.037,41.047 90.123,49.145 74.043 C 49.803 72.736,50.214 71.667,50.057 71.667 C 49.901 71.667,44.851 72.569,38.836 73.671 C 32.820 74.774,27.866 75.636,27.826 75.588 C 27.787 75.540,26.112 66.967,24.104 56.537 L 20.453 37.575 19.263 39.037 M223.833 116.197 C 214.850 124.178,207.473 130.811,207.441 130.937 C 207.376 131.190,227.328 148.799,227.470 148.615 C 227.518 148.552,228.105 141.915,228.774 133.866 C 229.443 125.818,230.065 119.158,230.156 119.066 C 230.248 118.974,237.556 119.441,246.397 120.103 C 255.239 120.764,262.496 121.274,262.525 121.236 C 262.596 121.143,240.672 101.854,240.389 101.760 C 240.267 101.719,232.817 108.216,223.833 116.197 M140.833 131.630 L 124.833 132.837 122.500 134.576 C 108.044 145.349,87.683 147.044,71.341 138.837 C 68.915 137.619,68.314 137.424,68.453 137.899 C 68.873 139.338,73.733 166.712,73.593 166.852 C 73.507 166.937,66.702 168.300,58.469 169.880 C 50.236 171.460,43.377 172.863,43.227 172.999 C 42.616 173.552,51.990 178.556,58.640 181.227 C 89.356 193.564,125.881 188.392,151.038 168.144 C 155.542 164.518,163.000 157.614,163.000 157.069 C 163.000 156.240,161.017 133.263,160.815 131.750 L 160.626 130.333 158.730 130.378 C 157.687 130.403,149.633 130.967,140.833 131.630 " stroke="none" fill="#3ca4e4" fill-rule="evenodd"></path><path id="path1" d="M201.167 252.963 C 192.348 255.532,187.611 266.157,190.450 277.000 C 194.882 293.926,219.234 293.550,222.830 276.500 C 226.209 260.475,215.463 248.799,201.167 252.963 M102.667 270.833 L 102.667 288.333 111.417 288.329 C 122.662 288.324,124.570 287.849,127.915 284.220 C 133.726 277.916,133.929 263.591,128.298 257.177 C 125.435 253.917,122.901 253.333,111.597 253.333 L 102.667 253.333 102.667 270.833 M210.190 259.794 C 218.032 263.445,217.333 279.510,209.215 282.206 C 202.082 284.575,196.589 277.905,197.740 268.271 C 198.608 261.001,204.365 257.081,210.190 259.794 M120.259 260.509 C 123.220 261.694,124.483 264.631,124.483 270.333 C 124.483 278.745,122.015 281.592,114.439 281.920 L 110.333 282.097 110.333 270.831 L 110.333 259.566 114.591 259.755 C 117.423 259.881,119.321 260.134,120.259 260.509 M143.133 262.164 C 137.646 263.896,135.188 267.963,135.175 275.333 C 135.158 284.759,139.230 289.177,147.843 289.077 C 153.373 289.013,159.299 284.717,159.330 280.750 C 159.336 279.949,151.759 280.183,151.503 280.991 C 150.246 284.950,143.363 283.258,142.380 278.750 L 142.071 277.333 150.919 277.333 L 159.766 277.333 159.558 274.417 C 158.867 264.740,151.762 259.440,143.133 262.164 M239.500 261.956 C 238.037 262.339,236.971 262.950,235.750 264.105 L 234.667 265.131 234.667 263.732 L 234.667 262.333 231.167 262.333 L 227.667 262.333 227.667 280.333 L 227.667 298.333 231.167 298.333 L 234.667 298.333 234.667 292.052 L 234.667 285.770 235.940 286.981 C 239.688 290.547,247.359 289.285,250.492 284.587 C 254.034 279.274,253.448 268.769,249.386 264.773 C 247.056 262.480,242.480 261.176,239.500 261.956 M263.500 261.965 C 258.404 263.336,255.401 267.966,256.635 272.548 C 257.430 275.501,259.281 276.639,266.321 278.503 C 271.147 279.781,272.089 280.309,271.932 281.647 C 271.541 285.001,263.000 283.602,263.000 280.183 C 263.000 279.748,262.418 279.667,259.287 279.667 L 255.574 279.667 255.774 281.355 C 256.830 290.277,274.657 292.530,278.521 284.230 C 281.411 278.023,278.558 274.265,269.205 271.957 C 263.587 270.571,262.487 269.643,264.545 268.024 C 266.584 266.420,271.082 267.561,271.395 269.761 C 271.495 270.465,271.670 270.504,275.130 270.595 L 278.761 270.690 278.553 269.177 C 277.787 263.587,270.480 260.086,263.500 261.965 M161.390 262.777 C 161.451 263.033,163.525 268.891,166.000 275.794 L 170.500 288.347 174.326 288.257 L 178.153 288.167 182.726 275.500 C 185.241 268.533,187.307 262.716,187.316 262.573 C 187.326 262.429,185.580 262.354,183.436 262.406 L 179.540 262.500 177.036 271.238 C 175.659 276.044,174.477 279.922,174.411 279.855 C 174.344 279.789,173.194 275.856,171.855 271.117 L 169.420 262.500 165.350 262.406 C 162.006 262.329,161.300 262.395,161.390 262.777 M149.310 268.251 C 150.687 268.953,151.585 270.121,151.871 271.583 L 152.083 272.667 147.202 272.667 L 142.321 272.667 142.548 271.760 C 143.409 268.329,146.410 266.772,149.310 268.251 M241.352 268.333 C 246.718 269.824,246.704 281.097,241.334 282.706 C 237.851 283.749,234.995 281.149,234.737 276.700 C 234.431 271.404,236.007 268.809,240.000 268.036 C 240.092 268.018,240.700 268.152,241.352 268.333 " stroke="none" fill="#0494fc" fill-rule="evenodd"></path><path id="path2" d="M299.500 2.674 C 286.600 3.827,274.911 7.197,263.833 12.958 C 259.541 15.190,253.470 18.915,253.719 19.164 C 253.790 19.235,260.970 20.665,269.674 22.342 C 278.378 24.020,285.591 25.491,285.702 25.613 C 285.855 25.779,282.393 45.451,280.881 53.010 L 280.682 54.004 282.425 52.981 C 298.891 43.311,321.095 44.491,336.000 55.827 C 337.558 57.013,339.208 58.267,339.667 58.616 C 340.444 59.207,363.788 63.656,364.161 63.284 C 364.331 63.114,371.000 28.961,371.000 28.260 C 371.000 27.078,362.193 20.037,355.879 16.172 C 339.262 5.998,318.346 0.991,299.500 2.674 M190.292 74.597 C 161.394 100.210,137.792 121.214,137.842 121.272 C 137.893 121.331,145.165 120.834,154.003 120.170 C 162.841 119.505,170.135 119.024,170.212 119.101 C 170.289 119.178,170.909 125.862,171.590 133.955 C 172.271 142.047,172.942 148.630,173.080 148.584 C 173.363 148.490,267.480 65.127,267.965 64.542 C 268.294 64.145,273.849 34.059,273.629 33.868 C 273.430 33.696,243.899 27.981,243.333 28.006 C 243.058 28.018,219.190 48.984,190.292 74.597 M379.873 38.000 C 379.775 38.275,378.098 46.825,376.147 57.000 C 374.197 67.175,372.578 75.524,372.550 75.554 C 372.523 75.584,367.572 74.711,361.549 73.616 C 355.526 72.520,350.537 71.685,350.463 71.759 C 350.389 71.834,350.910 73.156,351.622 74.697 C 359.139 90.975,357.108 110.322,346.407 124.367 L 344.586 126.757 341.737 142.544 C 340.169 151.227,338.953 158.397,339.032 158.477 C 339.209 158.654,368.186 164.333,368.913 164.333 C 369.642 164.333,376.641 157.169,379.985 153.000 C 389.176 141.539,395.395 128.227,398.580 113.190 C 399.724 107.793,400.105 86.766,399.167 80.787 C 397.079 67.469,391.806 54.304,383.966 42.833 C 380.823 38.233,380.096 37.375,379.873 38.000 M239.507 131.826 C 239.294 133.715,237.333 156.551,237.333 157.142 C 237.333 157.656,245.707 165.271,249.714 168.400 C 276.281 189.150,312.557 193.782,343.979 180.439 C 350.185 177.803,358.292 173.205,357.332 172.865 C 357.058 172.768,350.083 171.393,341.833 169.810 C 333.583 168.227,326.801 166.902,326.761 166.866 C 326.721 166.829,327.883 160.282,329.344 152.317 C 330.805 144.352,332.000 137.721,332.000 137.581 C 332.000 137.441,330.688 137.986,329.083 138.791 C 312.710 147.013,293.331 145.446,278.307 134.683 C 276.763 133.577,275.186 132.671,274.801 132.669 C 274.250 132.667,246.227 130.664,240.931 130.249 L 239.696 130.152 239.507 131.826 " stroke="none" fill="#5c64cc" fill-rule="evenodd"></path><path id="path3" d="M369.000 25.833 C 369.622 26.475,370.206 27.000,370.297 27.000 C 370.389 27.000,369.955 26.475,369.333 25.833 C 368.711 25.192,368.128 24.667,368.036 24.667 C 367.944 24.667,368.378 25.192,369.000 25.833 M30.028 26.804 C 29.421 27.430,29.005 28.143,29.103 28.388 C 29.242 28.736,29.286 28.728,29.307 28.349 C 29.321 28.083,29.813 27.370,30.399 26.766 C 30.985 26.161,31.389 25.667,31.297 25.667 C 31.206 25.667,30.635 26.179,30.028 26.804 M159.333 29.438 C 159.333 29.495,159.821 29.983,160.417 30.521 L 161.500 31.500 160.521 30.417 C 159.608 29.407,159.333 29.180,159.333 29.438 M239.479 30.750 L 238.500 31.833 239.583 30.854 C 240.179 30.316,240.667 29.828,240.667 29.771 C 240.667 29.513,240.392 29.740,239.479 30.750 M162.333 32.104 C 162.333 32.162,162.821 32.649,163.417 33.188 L 164.500 34.167 163.521 33.083 C 162.608 32.074,162.333 31.847,162.333 32.104 M236.479 33.417 L 235.500 34.500 236.583 33.521 C 237.179 32.983,237.667 32.495,237.667 32.438 C 237.667 32.180,237.392 32.407,236.479 33.417 M165.000 34.438 C 165.000 34.495,165.487 34.983,166.083 35.521 L 167.167 36.500 166.188 35.417 C 165.275 34.407,165.000 34.180,165.000 34.438 M233.479 36.083 L 232.500 37.167 233.583 36.188 C 234.179 35.649,234.667 35.162,234.667 35.104 C 234.667 34.847,234.392 35.074,233.479 36.083 M168.000 37.104 C 168.000 37.162,168.487 37.649,169.083 38.188 L 170.167 39.167 169.188 38.083 C 168.275 37.074,168.000 36.847,168.000 37.104 M230.479 38.750 L 229.500 39.833 230.583 38.854 C 231.179 38.316,231.667 37.828,231.667 37.771 C 231.667 37.513,231.392 37.740,230.479 38.750 M171.000 39.771 C 171.000 39.828,171.487 40.316,172.083 40.854 L 173.167 41.833 172.188 40.750 C 171.275 39.740,171.000 39.513,171.000 39.771 M173.667 42.104 C 173.667 42.162,174.154 42.649,174.750 43.188 L 175.833 44.167 174.854 43.083 C 173.942 42.074,173.667 41.847,173.667 42.104 M224.812 43.750 L 223.833 44.833 224.917 43.854 C 225.512 43.316,226.000 42.828,226.000 42.771 C 226.000 42.513,225.725 42.740,224.812 43.750 M176.667 44.771 C 176.667 44.828,177.154 45.316,177.750 45.854 L 178.833 46.833 177.854 45.750 C 176.942 44.740,176.667 44.513,176.667 44.771 M221.812 46.417 L 220.833 47.500 221.917 46.521 C 222.512 45.983,223.000 45.495,223.000 45.438 C 223.000 45.180,222.725 45.407,221.812 46.417 M92.259 46.578 C 93.043 46.648,94.243 46.647,94.925 46.576 C 95.608 46.504,94.967 46.446,93.500 46.448 C 92.033 46.449,91.475 46.507,92.259 46.578 M305.925 46.578 C 306.709 46.648,307.909 46.647,308.592 46.576 C 309.275 46.504,308.633 46.446,307.167 46.448 C 305.700 46.449,305.141 46.507,305.925 46.578 M218.812 49.083 L 217.833 50.167 218.917 49.188 C 219.512 48.649,220.000 48.162,220.000 48.104 C 220.000 47.847,219.725 48.074,218.812 49.083 M182.333 49.771 C 182.333 49.828,182.821 50.316,183.417 50.854 L 184.500 51.833 183.521 50.750 C 182.608 49.740,182.333 49.513,182.333 49.771 M215.812 51.750 L 214.833 52.833 215.917 51.854 C 216.512 51.316,217.000 50.828,217.000 50.771 C 217.000 50.513,216.725 50.740,215.812 51.750 M185.333 52.438 C 185.333 52.495,185.821 52.983,186.417 53.521 L 187.500 54.500 186.521 53.417 C 185.608 52.407,185.333 52.180,185.333 52.438 M213.146 54.083 L 212.167 55.167 213.250 54.188 C 213.846 53.649,214.333 53.162,214.333 53.104 C 214.333 52.847,214.058 53.074,213.146 54.083 M188.000 54.771 C 188.000 54.828,188.487 55.316,189.083 55.854 L 190.167 56.833 189.188 55.750 C 188.275 54.740,188.000 54.513,188.000 54.771 M210.146 56.750 L 209.167 57.833 210.250 56.854 C 210.846 56.316,211.333 55.828,211.333 55.771 C 211.333 55.513,211.058 55.740,210.146 56.750 M191.000 57.438 C 191.000 57.495,191.487 57.983,192.083 58.521 L 193.167 59.500 192.188 58.417 C 191.275 57.407,191.000 57.180,191.000 57.438 M207.146 59.417 L 206.167 60.500 207.250 59.521 C 207.846 58.983,208.333 58.495,208.333 58.438 C 208.333 58.180,208.058 58.407,207.146 59.417 M193.362 61.127 L 192.557 62.167 193.511 61.260 C 194.035 60.761,194.398 60.294,194.316 60.221 C 194.234 60.148,193.805 60.556,193.362 61.127 M204.146 62.083 L 203.167 63.167 204.250 62.188 C 204.846 61.649,205.333 61.162,205.333 61.104 C 205.333 60.847,205.058 61.074,204.146 62.083 M190.812 63.417 L 189.833 64.500 190.917 63.521 C 191.512 62.983,192.000 62.495,192.000 62.438 C 192.000 62.180,191.725 62.407,190.812 63.417 M187.812 66.083 L 186.833 67.167 187.917 66.188 C 188.512 65.649,189.000 65.162,189.000 65.104 C 189.000 64.847,188.725 65.074,187.812 66.083 M266.479 66.083 L 265.500 67.167 266.583 66.188 C 267.179 65.649,267.667 65.162,267.667 65.104 C 267.667 64.847,267.392 65.074,266.479 66.083 M198.479 67.083 L 197.500 68.167 198.583 67.188 C 199.179 66.649,199.667 66.162,199.667 66.104 C 199.667 65.847,199.392 66.074,198.479 67.083 M134.333 66.438 C 134.333 66.495,134.821 66.983,135.417 67.521 L 136.500 68.500 135.521 67.417 C 134.608 66.407,134.333 66.180,134.333 66.438 M184.812 68.750 L 183.833 69.833 184.917 68.854 C 185.512 68.316,186.000 67.828,186.000 67.771 C 186.000 67.513,185.725 67.740,184.812 68.750 M263.479 68.750 L 262.500 69.833 263.583 68.854 C 264.179 68.316,264.667 67.828,264.667 67.771 C 264.667 67.513,264.392 67.740,263.479 68.750 M137.000 68.771 C 137.000 68.828,137.487 69.316,138.083 69.854 L 139.167 70.833 138.188 69.750 C 137.275 68.740,137.000 68.513,137.000 68.771 M195.479 69.750 L 194.500 70.833 195.583 69.854 C 196.179 69.316,196.667 68.828,196.667 68.771 C 196.667 68.513,196.392 68.740,195.479 69.750 M182.146 71.083 L 181.167 72.167 182.250 71.188 C 182.846 70.649,183.333 70.162,183.333 70.104 C 183.333 69.847,183.058 70.074,182.146 71.083 M260.812 71.083 L 259.833 72.167 260.917 71.188 C 261.512 70.649,262.000 70.162,262.000 70.104 C 262.000 69.847,261.725 70.074,260.812 71.083 M140.000 71.438 C 140.000 71.495,140.487 71.983,141.083 72.521 L 142.167 73.500 141.188 72.417 C 140.275 71.407,140.000 71.180,140.000 71.438 M192.479 72.417 L 191.500 73.500 192.583 72.521 C 193.179 71.983,193.667 71.495,193.667 71.438 C 193.667 71.180,193.392 71.407,192.479 72.417 M179.146 73.750 L 178.167 74.833 179.250 73.854 C 179.846 73.316,180.333 72.828,180.333 72.771 C 180.333 72.513,180.058 72.740,179.146 73.750 M257.812 73.750 L 256.833 74.833 257.917 73.854 C 258.512 73.316,259.000 72.828,259.000 72.771 C 259.000 72.513,258.725 72.740,257.812 73.750 M143.000 74.104 C 143.000 74.162,143.487 74.649,144.083 75.188 L 145.167 76.167 144.188 75.083 C 143.275 74.074,143.000 73.847,143.000 74.104 M189.479 75.083 L 188.500 76.167 189.583 75.188 C 190.179 74.649,190.667 74.162,190.667 74.104 C 190.667 73.847,190.392 74.074,189.479 75.083 M176.479 76.083 L 175.500 77.167 176.583 76.188 C 177.179 75.649,177.667 75.162,177.667 75.104 C 177.667 74.847,177.392 75.074,176.479 76.083 M254.812 76.417 L 253.833 77.500 254.917 76.521 C 255.512 75.983,256.000 75.495,256.000 75.438 C 256.000 75.180,255.725 75.407,254.812 76.417 M145.667 76.438 C 145.667 76.495,146.154 76.983,146.750 77.521 L 147.833 78.500 146.854 77.417 C 145.942 76.407,145.667 76.180,145.667 76.438 M173.479 78.750 L 172.500 79.833 173.583 78.854 C 174.179 78.316,174.667 77.828,174.667 77.771 C 174.667 77.513,174.392 77.740,173.479 78.750 M251.812 79.083 L 250.833 80.167 251.917 79.188 C 252.512 78.649,253.000 78.162,253.000 78.104 C 253.000 77.847,252.725 78.074,251.812 79.083 M148.667 79.104 C 148.667 79.162,149.154 79.649,149.750 80.188 L 150.833 81.167 149.854 80.083 C 148.942 79.074,148.667 78.847,148.667 79.104 M183.812 80.083 L 182.833 81.167 183.917 80.188 C 184.512 79.649,185.000 79.162,185.000 79.104 C 185.000 78.847,184.725 79.074,183.812 80.083 M170.479 81.417 L 169.500 82.500 170.583 81.521 C 171.179 80.983,171.667 80.495,171.667 80.438 C 171.667 80.180,171.392 80.407,170.479 81.417 M151.333 81.438 C 151.333 81.495,151.821 81.983,152.417 82.521 L 153.500 83.500 152.521 82.417 C 151.608 81.407,151.333 81.180,151.333 81.438 M180.812 82.750 L 179.833 83.833 180.917 82.854 C 181.512 82.316,182.000 81.828,182.000 81.771 C 182.000 81.513,181.725 81.740,180.812 82.750 M167.812 83.750 L 166.833 84.833 167.917 83.854 C 168.512 83.316,169.000 82.828,169.000 82.771 C 169.000 82.513,168.725 82.740,167.812 83.750 M246.146 84.083 L 245.167 85.167 246.250 84.188 C 246.846 83.649,247.333 83.162,247.333 83.104 C 247.333 82.847,247.058 83.074,246.146 84.083 M154.333 84.104 C 154.333 84.162,154.821 84.649,155.417 85.188 L 156.500 86.167 155.521 85.083 C 154.608 84.074,154.333 83.847,154.333 84.104 M177.812 85.417 L 176.833 86.500 177.917 85.521 C 178.512 84.983,179.000 84.495,179.000 84.438 C 179.000 84.180,178.725 84.407,177.812 85.417 M164.812 86.417 L 163.833 87.500 164.917 86.521 C 165.512 85.983,166.000 85.495,166.000 85.438 C 166.000 85.180,165.725 85.407,164.812 86.417 M243.146 86.750 L 242.167 87.833 243.250 86.854 C 243.846 86.316,244.333 85.828,244.333 85.771 C 244.333 85.513,244.058 85.740,243.146 86.750 M157.333 86.771 C 157.333 86.828,157.821 87.316,158.417 87.854 L 159.500 88.833 158.521 87.750 C 157.608 86.740,157.333 86.513,157.333 86.771 M161.928 88.890 C 161.147 89.672,160.965 89.725,160.436 89.325 C 159.859 88.889,159.859 88.897,160.419 89.509 C 160.994 90.135,161.027 90.126,162.080 89.074 C 162.670 88.483,163.078 88.000,162.986 88.000 C 162.894 88.000,162.418 88.400,161.928 88.890 M240.146 89.417 L 239.167 90.500 240.250 89.521 C 240.846 88.983,241.333 88.495,241.333 88.438 C 241.333 88.180,241.058 88.407,240.146 89.417 M0.077 90.333 C 0.077 90.975,0.146 91.237,0.230 90.917 C 0.314 90.596,0.314 90.071,0.230 89.750 C 0.146 89.429,0.077 89.692,0.077 90.333 M172.146 90.417 L 171.167 91.500 172.250 90.521 C 172.846 89.983,173.333 89.495,173.333 89.438 C 173.333 89.180,173.058 89.407,172.146 90.417 M237.146 92.083 L 236.167 93.167 237.250 92.188 C 237.846 91.649,238.333 91.162,238.333 91.104 C 238.333 90.847,238.058 91.074,237.146 92.083 M169.146 93.083 L 168.167 94.167 169.250 93.188 C 169.846 92.649,170.333 92.162,170.333 92.104 C 170.333 91.847,170.058 92.074,169.146 93.083 M166.146 95.750 L 165.167 96.833 166.250 95.854 C 167.260 94.942,167.487 94.667,167.229 94.667 C 167.172 94.667,166.684 95.154,166.146 95.750 M231.479 97.083 L 230.500 98.167 231.583 97.188 C 232.179 96.649,232.667 96.162,232.667 96.104 C 232.667 95.847,232.392 96.074,231.479 97.083 M163.146 98.417 L 162.167 99.500 163.250 98.521 C 164.260 97.608,164.487 97.333,164.229 97.333 C 164.172 97.333,163.684 97.821,163.146 98.417 M228.479 99.750 L 227.500 100.833 228.583 99.854 C 229.179 99.316,229.667 98.828,229.667 98.771 C 229.667 98.513,229.392 98.740,228.479 99.750 M0.077 100.000 C 0.077 100.642,0.146 100.904,0.230 100.583 C 0.314 100.263,0.314 99.737,0.230 99.417 C 0.146 99.096,0.077 99.358,0.077 100.000 M225.479 102.417 L 224.500 103.500 225.583 102.521 C 226.179 101.983,226.667 101.495,226.667 101.438 C 226.667 101.180,226.392 101.407,225.479 102.417 M157.479 103.417 L 156.500 104.500 157.583 103.521 C 158.593 102.608,158.820 102.333,158.562 102.333 C 158.505 102.333,158.017 102.821,157.479 103.417 M237.479 103.750 L 236.500 104.833 237.583 103.854 C 238.179 103.316,238.667 102.828,238.667 102.771 C 238.667 102.513,238.392 102.740,237.479 103.750 M242.000 102.771 C 242.000 102.828,242.487 103.316,243.083 103.854 L 244.167 104.833 243.188 103.750 C 242.275 102.740,242.000 102.513,242.000 102.771 M222.479 105.083 L 221.500 106.167 222.583 105.188 C 223.179 104.649,223.667 104.162,223.667 104.104 C 223.667 103.847,223.392 104.074,222.479 105.083 M154.479 106.083 L 153.500 107.167 154.583 106.188 C 155.179 105.649,155.667 105.162,155.667 105.104 C 155.667 104.847,155.392 105.074,154.479 106.083 M234.479 106.417 L 233.500 107.500 234.583 106.521 C 235.179 105.983,235.667 105.495,235.667 105.438 C 235.667 105.180,235.392 105.407,234.479 106.417 M219.812 107.417 L 218.833 108.500 219.917 107.521 C 220.512 106.983,221.000 106.495,221.000 106.438 C 221.000 106.180,220.725 106.407,219.812 107.417 M151.479 108.750 L 150.500 109.833 151.583 108.854 C 152.593 107.942,152.820 107.667,152.562 107.667 C 152.505 107.667,152.017 108.154,151.479 108.750 M247.667 107.771 C 247.667 107.828,248.154 108.316,248.750 108.854 L 249.833 109.833 248.854 108.750 C 247.942 107.740,247.667 107.513,247.667 107.771 M231.479 109.083 L 230.500 110.167 231.583 109.188 C 232.179 108.649,232.667 108.162,232.667 108.104 C 232.667 107.847,232.392 108.074,231.479 109.083 M216.812 110.083 L 215.833 111.167 216.917 110.188 C 217.512 109.649,218.000 109.162,218.000 109.104 C 218.000 108.847,217.725 109.074,216.812 110.083 M250.333 110.104 C 250.333 110.162,250.821 110.649,251.417 111.188 L 252.500 112.167 251.521 111.083 C 250.608 110.074,250.333 109.847,250.333 110.104 M148.479 111.417 L 147.500 112.500 148.583 111.521 C 149.179 110.983,149.667 110.495,149.667 110.438 C 149.667 110.180,149.392 110.407,148.479 111.417 M228.479 111.750 L 227.500 112.833 228.583 111.854 C 229.179 111.316,229.667 110.828,229.667 110.771 C 229.667 110.513,229.392 110.740,228.479 111.750 M213.812 112.750 L 212.833 113.833 213.917 112.854 C 214.512 112.316,215.000 111.828,215.000 111.771 C 215.000 111.513,214.725 111.740,213.812 112.750 M145.812 113.750 L 144.833 114.833 145.917 113.854 C 146.512 113.316,147.000 112.828,147.000 112.771 C 147.000 112.513,146.725 112.740,145.812 113.750 M253.333 112.771 C 253.333 112.828,253.821 113.316,254.417 113.854 L 255.500 114.833 254.521 113.750 C 253.608 112.740,253.333 112.513,253.333 112.771 M225.479 114.417 L 224.500 115.500 225.583 114.521 C 226.179 113.983,226.667 113.495,226.667 113.438 C 226.667 113.180,226.392 113.407,225.479 114.417 M210.812 115.417 L 209.833 116.500 210.917 115.521 C 211.512 114.983,212.000 114.495,212.000 114.438 C 212.000 114.180,211.725 114.407,210.812 115.417 M256.000 115.104 C 256.000 115.162,256.487 115.649,257.083 116.188 L 258.167 117.167 257.188 116.083 C 256.275 115.074,256.000 114.847,256.000 115.104 M142.812 116.417 L 141.833 117.500 142.917 116.521 C 143.926 115.608,144.153 115.333,143.896 115.333 C 143.838 115.333,143.351 115.821,142.812 116.417 M222.649 116.917 L 221.500 118.167 222.750 117.018 C 223.913 115.949,224.153 115.667,223.899 115.667 C 223.843 115.667,223.281 116.229,222.649 116.917 M259.000 117.771 C 259.000 117.828,259.487 118.316,260.083 118.854 L 261.167 119.833 260.188 118.750 C 259.275 117.740,259.000 117.513,259.000 117.771 M139.812 119.083 L 138.833 120.167 139.917 119.188 C 140.926 118.275,141.153 118.000,140.896 118.000 C 140.838 118.000,140.351 118.487,139.812 119.083 M219.812 119.417 L 218.833 120.500 219.917 119.521 C 220.512 118.983,221.000 118.495,221.000 118.438 C 221.000 118.180,220.725 118.407,219.812 119.417 M230.005 119.583 C 230.008 119.954,230.100 120.029,230.255 119.789 C 230.390 119.581,230.800 119.336,231.167 119.244 C 231.678 119.116,231.619 119.068,230.917 119.039 C 230.249 119.011,230.001 119.159,230.005 119.583 M205.146 120.417 L 204.167 121.500 205.250 120.521 C 205.846 119.983,206.333 119.495,206.333 119.438 C 206.333 119.180,206.058 119.407,205.146 120.417 M262.108 120.554 C 262.698 121.252,262.698 121.280,262.108 121.432 C 261.620 121.558,261.648 121.597,262.250 121.628 C 262.662 121.649,263.000 121.540,263.000 121.385 C 263.000 121.230,262.662 120.818,262.250 120.468 L 261.500 119.833 262.108 120.554 M137.556 120.889 C 137.112 121.333,137.350 121.666,138.083 121.628 C 138.654 121.599,138.693 121.553,138.246 121.436 C 137.923 121.352,137.744 121.144,137.849 120.975 C 138.069 120.618,137.881 120.563,137.556 120.889 M216.812 122.083 L 215.833 123.167 216.917 122.188 C 217.512 121.649,218.000 121.162,218.000 121.104 C 218.000 120.847,217.725 121.074,216.812 122.083 M202.146 123.083 L 201.167 124.167 202.250 123.188 C 202.846 122.649,203.333 122.162,203.333 122.104 C 203.333 121.847,203.058 122.074,202.146 123.083 M213.812 124.750 L 212.833 125.833 213.917 124.854 C 214.512 124.316,215.000 123.828,215.000 123.771 C 215.000 123.513,214.725 123.740,213.812 124.750 M199.146 125.750 L 198.167 126.833 199.250 125.854 C 199.846 125.316,200.333 124.828,200.333 124.771 C 200.333 124.513,200.058 124.740,199.146 125.750 M210.812 127.417 L 209.833 128.500 210.917 127.521 C 211.512 126.983,212.000 126.495,212.000 126.438 C 212.000 126.180,211.725 126.407,210.812 127.417 M196.146 128.417 L 195.167 129.500 196.250 128.521 C 196.846 127.983,197.333 127.495,197.333 127.438 C 197.333 127.180,197.058 127.407,196.146 128.417 M207.829 130.005 C 206.889 130.986,206.881 131.023,207.498 131.588 C 208.100 132.139,208.109 132.138,207.681 131.571 C 207.288 131.051,207.351 130.852,208.178 129.988 C 208.699 129.445,209.050 129.000,208.958 129.000 C 208.866 129.000,208.358 129.452,207.829 130.005 M190.479 133.417 L 189.500 134.500 190.583 133.521 C 191.179 132.983,191.667 132.495,191.667 132.438 C 191.667 132.180,191.392 132.407,190.479 133.417 M209.000 132.771 C 209.000 132.828,209.487 133.316,210.083 133.854 L 211.167 134.833 210.188 133.750 C 209.275 132.740,209.000 132.513,209.000 132.771 M187.479 136.083 L 186.500 137.167 187.583 136.188 C 188.179 135.649,188.667 135.162,188.667 135.104 C 188.667 134.847,188.392 135.074,187.479 136.083 M211.667 135.104 C 211.667 135.162,212.154 135.649,212.750 136.188 L 213.833 137.167 212.854 136.083 C 211.942 135.074,211.667 134.847,211.667 135.104 M184.479 138.750 L 183.500 139.833 184.583 138.854 C 185.179 138.316,185.667 137.828,185.667 137.771 C 185.667 137.513,185.392 137.740,184.479 138.750 M214.667 137.771 C 214.667 137.828,215.154 138.316,215.750 138.854 L 216.833 139.833 215.854 138.750 C 214.942 137.740,214.667 137.513,214.667 137.771 M217.333 140.104 C 217.333 140.162,217.821 140.649,218.417 141.188 L 219.500 142.167 218.521 141.083 C 217.608 140.074,217.333 139.847,217.333 140.104 M181.479 141.417 L 180.500 142.500 181.583 141.521 C 182.179 140.983,182.667 140.495,182.667 140.438 C 182.667 140.180,182.392 140.407,181.479 141.417 M178.812 143.750 L 177.833 144.833 178.917 143.854 C 179.512 143.316,180.000 142.828,180.000 142.771 C 180.000 142.513,179.725 142.740,178.812 143.750 M220.333 142.771 C 220.333 142.828,220.821 143.316,221.417 143.854 L 222.500 144.833 221.521 143.750 C 220.608 142.740,220.333 142.513,220.333 142.771 M223.000 145.104 C 223.000 145.162,223.487 145.649,224.083 146.188 L 225.167 147.167 224.188 146.083 C 223.275 145.074,223.000 144.847,223.000 145.104 M175.812 146.417 L 174.833 147.500 175.917 146.521 C 176.512 145.983,177.000 145.495,177.000 145.438 C 177.000 145.180,176.725 145.407,175.812 146.417 M24.167 157.667 C 24.883 158.400,25.544 159.000,25.635 159.000 C 25.727 159.000,25.216 158.400,24.500 157.667 C 23.784 156.933,23.123 156.333,23.031 156.333 C 22.940 156.333,23.451 156.933,24.167 157.667 M237.026 157.021 C 237.012 157.308,237.487 157.983,238.083 158.521 L 239.167 159.500 238.292 158.500 C 237.810 157.950,237.335 157.275,237.235 157.000 C 237.078 156.569,237.049 156.572,237.026 157.021 M372.993 160.917 L 370.167 163.833 373.083 161.007 C 375.792 158.383,376.152 158.000,375.909 158.000 C 375.859 158.000,374.547 159.313,372.993 160.917 M161.146 159.417 L 160.167 160.500 161.250 159.521 C 161.846 158.983,162.333 158.495,162.333 158.438 C 162.333 158.180,162.058 158.407,161.146 159.417 M241.500 161.667 C 242.403 162.583,243.217 163.333,243.308 163.333 C 243.400 163.333,242.736 162.583,241.833 161.667 C 240.930 160.750,240.117 160.000,240.025 160.000 C 239.933 160.000,240.597 160.750,241.500 161.667 M157.487 162.750 L 155.833 164.500 157.583 162.846 C 158.546 161.936,159.333 161.149,159.333 161.096 C 159.333 160.847,159.025 161.124,157.487 162.750 M30.000 163.500 C 30.622 164.142,31.206 164.667,31.297 164.667 C 31.389 164.667,30.955 164.142,30.333 163.500 C 29.711 162.858,29.128 162.333,29.036 162.333 C 28.944 162.333,29.378 162.858,30.000 163.500 " stroke="none" fill="#cedcf4" fill-rule="evenodd"></path><path id="path4" d="M90.917 2.581 C 92.246 2.644,94.421 2.644,95.750 2.581 C 97.079 2.518,95.992 2.466,93.333 2.466 C 90.675 2.466,89.587 2.518,90.917 2.581 M84.417 2.896 C 84.737 2.980,85.262 2.980,85.583 2.896 C 85.904 2.813,85.642 2.744,85.000 2.744 C 84.358 2.744,84.096 2.813,84.417 2.896 M101.083 2.896 C 101.404 2.980,101.929 2.980,102.250 2.896 C 102.571 2.813,102.308 2.744,101.667 2.744 C 101.025 2.744,100.763 2.813,101.083 2.896 M157.033 27.750 C 157.112 27.796,157.850 28.433,158.672 29.167 L 160.167 30.500 158.849 29.083 C 158.124 28.304,157.387 27.667,157.210 27.667 C 157.033 27.667,156.954 27.704,157.033 27.750 M89.254 46.569 C 89.669 46.649,90.269 46.646,90.587 46.562 C 90.906 46.479,90.567 46.414,89.833 46.417 C 89.100 46.421,88.839 46.489,89.254 46.569 M96.417 46.563 C 96.737 46.647,97.263 46.647,97.583 46.563 C 97.904 46.479,97.642 46.411,97.000 46.411 C 96.358 46.411,96.096 46.479,96.417 46.563 M0.411 87.333 C 0.411 87.975,0.479 88.237,0.563 87.917 C 0.647 87.596,0.647 87.071,0.563 86.750 C 0.479 86.429,0.411 86.692,0.411 87.333 M0.127 95.167 C 0.128 97.367,0.182 98.223,0.247 97.070 C 0.312 95.917,0.312 94.117,0.246 93.070 C 0.180 92.023,0.127 92.967,0.127 95.167 M356.084 95.167 C 356.088 95.900,356.156 96.161,356.236 95.746 C 356.315 95.331,356.312 94.731,356.229 94.413 C 356.146 94.094,356.080 94.433,356.084 95.167 M0.411 103.000 C 0.411 103.642,0.479 103.904,0.563 103.583 C 0.647 103.263,0.647 102.737,0.563 102.417 C 0.479 102.096,0.411 102.358,0.411 103.000 M232.254 119.236 C 232.669 119.315,233.269 119.312,233.587 119.229 C 233.906 119.146,233.567 119.080,232.833 119.084 C 232.100 119.088,231.839 119.156,232.254 119.236 M236.750 119.563 C 237.071 119.647,237.596 119.647,237.917 119.563 C 238.237 119.479,237.975 119.411,237.333 119.411 C 236.692 119.411,236.429 119.479,236.750 119.563 M241.083 119.896 C 241.404 119.980,241.929 119.980,242.250 119.896 C 242.571 119.813,242.308 119.744,241.667 119.744 C 241.025 119.744,240.762 119.813,241.083 119.896 M245.750 120.230 C 246.071 120.314,246.596 120.314,246.917 120.230 C 247.237 120.146,246.975 120.077,246.333 120.077 C 245.692 120.077,245.429 120.146,245.750 120.230 M250.083 120.563 C 250.404 120.647,250.929 120.647,251.250 120.563 C 251.571 120.479,251.308 120.411,250.667 120.411 C 250.025 120.411,249.762 120.479,250.083 120.563 M254.587 120.902 C 255.002 120.982,255.602 120.979,255.921 120.896 C 256.239 120.812,255.900 120.747,255.167 120.751 C 254.433 120.754,254.173 120.823,254.587 120.902 M229.744 122.000 C 229.744 122.642,229.813 122.904,229.896 122.583 C 229.980 122.263,229.980 121.737,229.896 121.417 C 229.813 121.096,229.744 121.358,229.744 122.000 M259.083 121.230 C 259.404 121.314,259.929 121.314,260.250 121.230 C 260.571 121.146,260.308 121.077,259.667 121.077 C 259.025 121.077,258.762 121.146,259.083 121.230 M159.896 130.216 C 160.297 130.303,160.692 130.667,160.774 131.026 C 160.889 131.532,160.912 131.509,160.878 130.922 C 160.845 130.367,160.613 130.152,160.000 130.112 C 159.306 130.067,159.289 130.084,159.896 130.216 M155.083 130.563 C 155.404 130.647,155.929 130.647,156.250 130.563 C 156.571 130.479,156.308 130.411,155.667 130.411 C 155.025 130.411,154.762 130.479,155.083 130.563 M150.587 130.902 C 151.002 130.982,151.602 130.979,151.921 130.896 C 152.239 130.812,151.900 130.747,151.167 130.751 C 150.433 130.754,150.173 130.823,150.587 130.902 M146.083 131.230 C 146.404 131.314,146.929 131.314,147.250 131.230 C 147.571 131.146,147.308 131.077,146.667 131.077 C 146.025 131.077,145.762 131.146,146.083 131.230 M141.417 131.563 C 141.737 131.647,142.262 131.647,142.583 131.563 C 142.904 131.479,142.642 131.411,142.000 131.411 C 141.358 131.411,141.096 131.479,141.417 131.563 M136.750 131.896 C 137.071 131.980,137.596 131.980,137.917 131.896 C 138.237 131.813,137.975 131.744,137.333 131.744 C 136.692 131.744,136.429 131.813,136.750 131.896 M132.254 132.236 C 132.669 132.315,133.269 132.312,133.587 132.229 C 133.906 132.146,133.567 132.080,132.833 132.084 C 132.100 132.088,131.839 132.156,132.254 132.236 M127.750 132.563 C 128.071 132.647,128.596 132.647,128.917 132.563 C 129.237 132.479,128.975 132.411,128.333 132.411 C 127.692 132.411,127.429 132.479,127.750 132.563 M161.744 142.333 C 161.744 142.975,161.813 143.237,161.896 142.917 C 161.980 142.596,161.980 142.071,161.896 141.750 C 161.813 141.429,161.744 141.692,161.744 142.333 M227.744 145.667 C 227.744 146.308,227.813 146.571,227.896 146.250 C 227.980 145.929,227.980 145.404,227.896 145.083 C 227.813 144.762,227.744 145.025,227.744 145.667 M27.167 160.667 C 28.070 161.583,28.883 162.333,28.975 162.333 C 29.067 162.333,28.403 161.583,27.500 160.667 C 26.597 159.750,25.783 159.000,25.692 159.000 C 25.600 159.000,26.264 159.750,27.167 160.667 M86.917 187.902 C 87.329 187.981,88.004 187.981,88.417 187.902 C 88.829 187.822,88.492 187.757,87.667 187.757 C 86.842 187.757,86.504 187.822,86.917 187.902 M98.587 187.902 C 99.002 187.982,99.602 187.979,99.921 187.896 C 100.239 187.812,99.900 187.747,99.167 187.751 C 98.433 187.754,98.173 187.823,98.587 187.902 " stroke="none" fill="#86c5ef" fill-rule="evenodd"></path></g></svg>